<?xml version="1.0" encoding="utf-8"?>
<!-- Generator: Adobe Illustrator 15.0.2, SVG Export Plug-In . SVG Version: 6.00 Build 0)  -->
<!DOCTYPE svg PUBLIC "-//W3C//DTD SVG 1.1//EN" "http://www.w3.org/Graphics/SVG/1.1/DTD/svg11.dtd">
<svg version="1.1" id="Layer_1" xmlns="http://www.w3.org/2000/svg" xmlns:xlink="http://www.w3.org/1999/xlink" x="0px" y="0px"
	 width="1080px" height="1080px" viewBox="0 0 1080 1080" enable-background="new 0 0 1080 1080" xml:space="preserve">
<rect id="background" x="-0.5" y="-0.5" fill="#FFFFFF" fill-opacity="0.0" width="1080" height="1080"/>
<g>
	<path id="head_1_" fill="#C7B299" d="M772.54,970V298.239c0,0-13.615-186.458-233.493-189.012
		c-219.879,2.554-233.495,189.012-233.495,189.012V970"/>
	<g id="beak_2">
		<path fill="#736357" stroke="#C7B299" stroke-width="4" stroke-miterlimit="10" d="M582.86,803.274
			c0,23.417-18.982,42.4-42.399,42.4l0,0c-23.418,0-42.401-18.983-42.401-42.4v-106c0-23.417,18.982-42.4,42.401-42.4l0,0
			c23.417,0,42.399,18.983,42.399,42.4V803.274z"/>
		<path opacity="0.8" fill="#736357" stroke="#C7B299" stroke-width="4" stroke-linejoin="round" stroke-miterlimit="10" d="
			M498.06,697.274c0-23.417,18.982-42.4,42.401-42.4l0,0c23.417,0,42.399,18.983,42.399,42.4l-0.398,109.224L498.06,697.274z"/>
	</g>
	<g id="eye_right">
		<path fill="#736357" d="M699.827,358.18c0,0,16.707-83.511-53.043-83.511c-54.631,0.001-63.139,43.953-63.67,54.047
			c-0.529,10.094-0.068,214.894-0.068,214.894s3.99,51.18,63.738,51.18c53.043,0,53.549-35.504,52.854-77.677
			c-0.652-39.508,0.189-60.981,0.189-60.981l-42.434-17.356l42.434-19.123V358.18z"/>
		<g id="_eye_right">
			<path fill="#FCEE21" fill-opacity="0.8" d="M699.989,535.137c0,27.322-23.727,49.468-53,49.468l0,0c-29.27,0-53-22.146-53-49.468
				V337.271c0-27.32,23.73-49.467,53-49.467l0,0c29.273,0,53,22.146,53,49.467V419.6l-42.398,19.079l42.398,17.314V535.137z"/>
			<path fill="#1A1A1A" d="M699.989,512.878c0,23.418-18.982,42.401-42.398,42.401l0,0c-23.418,0-42.4-18.983-42.4-42.401V364.479
				c0-23.417,18.982-42.4,42.4-42.4l0,0c23.416,0,42.398,18.983,42.398,42.4V419.6l-42.398,19.078l42.398,17.315V512.878z"/>
		</g>
	</g>
	<g id="eye_left_1_">
		<path fill="#736357" d="M495.455,358.18c0,0,16.708-83.511-53.041-83.511c-54.633,0.001-63.14,43.953-63.67,54.047
			c-0.531,10.094-0.069,214.894-0.069,214.894s3.99,51.18,63.739,51.18c53.041,0,53.548-35.504,52.852-77.677
			c-0.652-39.507,0.189-60.981,0.189-60.981l-42.433-17.356l42.433-19.123V358.18z"/>
		<g id="eye_left">
			<path fill="#FCEE21" fill-opacity="0.8" d="M495.41,535.137c0,27.322-23.728,49.468-53,49.468l0,0c-29.27,0-53-22.146-53-49.468
				V337.271c0-27.32,23.73-49.467,53-49.467l0,0c29.272,0,53,22.146,53,49.467V419.6l-42.399,19.079l42.399,17.314V535.137z"/>
			<path fill="#1A1A1A" d="M495.41,512.878c0,23.418-18.982,42.401-42.399,42.401l0,0c-23.416,0-42.4-18.983-42.4-42.401V364.479
				c0-23.417,18.984-42.4,42.4-42.4l0,0c23.417,0,42.399,18.983,42.399,42.4V419.6l-42.399,19.078l42.399,17.315V512.878z"/>
		</g>
	</g>
	<path id="ear_Right" fill="#736357" d="M583.868,277.773c0,0,25.344-44.215,66.779-54.06
		c47.965-11.396,98.799-12.688,112.592-12.307c27.496,0.761,39.387-12.073,39.387-12.073s18.33,1.678,29.285-13.338
		c0,0,19.873,2.737,36.039-38.779c1.014-2.604-13.633,9.899-31.441,10.234c-52.182,0.981-140.545-1.048-183.475,11.407
		C625.622,176.812,584.134,225.568,583.868,277.773z"/>
	<path id="ear_Left" fill="#736357" d="M496.647,277.773c0,0-25.344-44.215-66.78-54.06
		c-47.965-11.397-98.798-12.688-112.592-12.306c-27.495,0.76-39.386-12.074-39.386-12.074s-18.329,1.679-29.285-13.337
		c0,0-19.872,2.736-36.039-38.78c-1.014-2.604,13.633,9.899,31.441,10.234c52.182,0.981,140.546-1.048,183.476,11.407
		C454.893,176.812,496.382,225.568,496.647,277.773z"/>
	<path fill="#736357" d="M539.4,261.521c9.539-90.63,111.564-110.244,111.564-110.244s-48.559-27.148-111.895-26.143
		c-63.335-1.006-111.233,26.143-111.233,26.143S529.86,170.891,539.4,261.521z"/>
	<path id="facial_curve" fill="#736357" d="M469.44,269.078c0,0-100.17-72.434-114.127,66.781
		c-10.012,99.854,2.138,284.508,8.129,342.376c23.812,230.001,25.545,107.448,57.769,34.1c24.335-55.395,55.272,5.047,64.13,47.17
		c7.244,34.451,5.124,9.365-24.557-39.572C430,669.176,427.57,799.255,404.25,841.655c-23.32,42.399-65.899,28.819-71.197-238.323
		c-4.946-249.454-2.827-288.673,10.6-321.886C366.318,225.383,434.46,208.658,469.44,269.078z"/>
	<path id="facial_curve_1_" fill="#736357" d="M610.739,269.382c0,0,100.17-72.434,114.129,66.781
		c10.012,99.854-2.139,284.508-8.131,342.376c-23.811,230-25.545,107.448-57.768,34.099c-24.334-55.394-55.273,5.048-64.129,47.171
		c-7.244,34.45-5.125,9.364,24.555-39.572c30.783-50.757,33.215,79.322,56.535,121.722c23.318,42.4,65.898,28.82,71.195-238.323
		c4.947-249.453,2.828-288.673-10.6-321.886C713.862,225.687,645.72,208.962,610.739,269.382z"/>
	<g id="under_beak">
		<path fill="#736357" d="M452.48,766.925c0,0,42.4,168.74,84.8,95.6c1.085-1.871,3.181-5.002,3.181,0c0,9.54,0,30.74,0,30.74
			S482.16,936.524,452.48,766.925z"/>
		<path fill="#736357" d="M627.38,767.125c0,0-42.4,168.739-84.801,95.6c-1.084-1.872-3.179-5.002-3.179,0c0,9.54,0,30.74,0,30.74
			S597.7,936.725,627.38,767.125z"/>
	</g>
	<g id="details_Right">
		<path fill="#736357" d="M565.899,940.765c0,0-2.119-24.38,29.68-24.38c31.801,0,53,3.18,53-13.78s10.602-18.02,32.861-18.02
			s-16.961,1.06-16.961,16.96c0,23.32-11.66,31.8-36.039,31.8c-24.381,0-21.201,0-33.92,0
			C581.8,933.345,572.261,933.345,565.899,940.765z"/>
		<path fill="#736357" d="M677.897,907.905c0,0,0-18.021,30.738-18.021c22.262,0-14.84,0-15.045,13.78
			c-0.236,15.933-4.768,36.043-19.57,37.1c-14.84,1.061-48.76,2.12-18.02-2.12C674.128,936.145,674.716,926.984,677.897,907.905z"/>
	</g>
	<g id="details_Left">
		<path fill="#736357" d="M513.93,940.765c0,0,2.12-24.38-29.68-24.38c-31.801,0-53,3.18-53-13.78s-10.601-18.02-32.86-18.02
			s16.96,1.06,16.96,16.96c0,23.32,11.66,31.8,36.04,31.8s21.2,0,33.92,0S507.571,933.345,513.93,940.765z"/>
		<path fill="#736357" d="M401.933,907.905c0,0,0-18.021-30.74-18.021c-22.26,0,14.841,0,15.046,13.78
			c0.236,15.933,4.769,36.043,19.571,37.1c14.84,1.061,48.76,2.12,18.02-2.12C405.703,936.145,405.114,926.984,401.933,907.905z"/>
	</g>
</g>
</svg>
