<?xml version="1.0" encoding="utf-8"?>
<!-- Generator: Adobe Illustrator 15.0.2, SVG Export Plug-In  -->
<!DOCTYPE svg PUBLIC "-//W3C//DTD SVG 1.1//EN" "http://www.w3.org/Graphics/SVG/1.1/DTD/svg11.dtd" [
	<!ENTITY ns_flows "http://ns.adobe.com/Flows/1.0/">
]>
<svg version="1.1"
	 xmlns="http://www.w3.org/2000/svg" xmlns:xlink="http://www.w3.org/1999/xlink" xmlns:a="http://ns.adobe.com/AdobeSVGViewerExtensions/3.0/"
	 x="0px" y="0px" width="1080px" height="1080px" viewBox="0 0 1080 1080"
	 overflow="visible" enable-background="new 0 0 1080 1080" xml:space="preserve">
<defs>
</defs>
<rect id="wht_bckgrnd_1_" fill="#FFFFFF" fill-opacity="0.0" width="1080" height="1080"/>
<path id="head_1_" fill="#8C6239" d="M684,895c0,42.5263672-34.4736328,77-77,77H473c-42.5258789,0-77-34.4736328-77-77V478
	c0-42.5258789,34.4741211-77,77-77h134c42.5263672,0,77,34.4741211,77,77V895z"/>
<g id="antler_1_">
	<linearGradient id="SVGID_1_" gradientUnits="userSpaceOnUse" x1="300" y1="112" x2="299.9999695" y2="542.0004883">
		<stop  offset="0.190184" style="stop-color:#A67C52"/>
		<stop  offset="1" style="stop-color:#603813"/>
	</linearGradient>
	<path fill="url(#SVGID_1_)" d="M471,542c11,0,20-9,20-20v-22c0-11-9-20-20-20h-56c-11,0-20-9-20-20V236c0-11-8.1000977-20-18-20
		s-18,9-18,20v102c0,11-9,20-20,20h-10c-11,0-20-9-20-20V194c0-11-8.3251953-20-18.5-20s-18.5,9-18.5,20v123c0,11-9,20-20,20h-7
		c-11,0-20-9-20-20V165c0-11-8.5498047-20-19-20s-19,9-19,20v135c0,11-9,20-20,20h-5c-11,0-20-9-20-20V132
		c0-11-7.4248047-20-16.5-20s-16.5,9-16.5,20v263c0,11,9,20,20,20h136c11,0,20,9,20,20v87c0,11,9,20,20,20H471z"/>
</g>
<g id="antler_copy_1_">
	
		<linearGradient id="SVGID_2_" gradientUnits="userSpaceOnUse" x1="259.9995117" y1="112.0004883" x2="259.9994812" y2="541.9995117" gradientTransform="matrix(-1 0 0 1 1040 0)">
		<stop  offset="0.190184" style="stop-color:#A67C52"/>
		<stop  offset="1" style="stop-color:#603813"/>
	</linearGradient>
	<path fill="url(#SVGID_2_)" d="M609,542c-11,0-20-9-20-20v-22c0-11,9-20,20-20h56c11,0,20-9,20-20V236c0-11,8.0996094-20,18-20
		s18,9,18,20v102c0,11,9,20,20,20h10c11,0,20-9,20-20V194c0-11,8.3251953-20,18.5-20s18.5,9,18.5,20v123c0,11,9,20,20,20h7
		c11,0,20-9,20-20V165c0-11,8.5498047-20,19-20s19,9,19,20v135c0,11,9,20,20,20h5c11,0,20-9,20-20V132c0-11,7.4248047-20,16.5-20
		s16.5,9,16.5,20v263c0,11-9,20-20,20H815c-11,0-20,9-20,20v87c0,11-9,20-20,20H609z"/>
</g>
<linearGradient id="SVGID_3_" gradientUnits="userSpaceOnUse" x1="447" y1="288" x2="447" y2="431">
	<stop  offset="0.190184" style="stop-color:#C69C6D"/>
	<stop  offset="1" style="stop-color:#A67C52"/>
</linearGradient>
<polygon fill="url(#SVGID_3_)" points="401,288 401,431 493,431 493,372 427,288 "/>
<g>
	<path fill="#8C6239" d="M445,460c-2.2001953,0-4-1.7998047-4-4v-29c0-2.2001953,1.7998047-4,4-4h37c2.2001953,0,4-1.7998047,4-4
		v-39c0-2.2001953-1.1049805-5.4208984-2.4555664-7.1572266l-58.0888672-74.6855469
		C424.1049805,296.4208984,421.2001953,295,419,295h-7c-2.2001953,0-4,1.7998047-4,4v120c0,2.2001953,1.7998047,4,4,4h16
		c2.2001953,0,4,1.7998047,4,4v1c0,2.2001953-1.7998047,4-4,4h-24c-2.2001953,0-4-1.7998047-4-4V291c0-2.2001953,1.7998047-4,4-4h20
		c2.2001953,0,5.1225586,1.4072266,6.4941406,3.1269531l62.0117188,77.7460938C493.8774414,369.5927734,495,372.7998047,495,375v53
		c0,2.2001953-1.7998047,4-4,4h-28c-2.2001953,0-4,1.7998047-4,4v20c0,2.2001953-1.7998047,4-4,4H445z"/>
</g>
<linearGradient id="SVGID_4_" gradientUnits="userSpaceOnUse" x1="632" y1="288" x2="632" y2="431">
	<stop  offset="0.190184" style="stop-color:#C69C6D"/>
	<stop  offset="1" style="stop-color:#A67C52"/>
</linearGradient>
<polygon fill="url(#SVGID_4_)" points="678,288 678,431 586,431 586,372 652,288 "/>
<g>
	<path fill="#8C6239" d="M634,460c2.2001953,0,4-1.7998047,4-4v-29c0-2.2001953-1.7998047-4-4-4h-37c-2.2001953,0-4-1.7998047-4-4
		v-39c0-2.2001953,1.1054688-5.4208984,2.4560547-7.1572266l58.0878906-74.6855469C654.8945312,296.4208984,657.7998047,295,660,295
		h7c2.2001953,0,4,1.7998047,4,4v120c0,2.2001953-1.7998047,4-4,4h-16c-2.2001953,0-4,1.7998047-4,4v1c0,2.2001953,1.7998047,4,4,4
		h24c2.2001953,0,4-1.7998047,4-4V291c0-2.2001953-1.7998047-4-4-4h-20c-2.2001953,0-5.1220703,1.4072266-6.4941406,3.1269531
		l-62.0117188,77.7460938C585.1220703,369.5927734,584,372.7998047,584,375v53c0,2.2001953,1.7998047,4,4,4h28
		c2.2001953,0,4,1.7998047,4,4v20c0,2.2001953,1.7998047,4,4,4H634z"/>
</g>
<path fill="#1A1A1A" d="M503,921.5c0,12.9785156-10.2973633,23.5-23,23.5l0,0c-12.7026367,0-23-10.5214844-23-23.5v-47
	c0-12.9785156,10.2973633-23.5,23-23.5l0,0c12.7026367,0,23,10.5214844,23,23.5V921.5z"/>
<path fill="#8C6239" d="M456,874c0-13.2548828,10.7451172-24,24-24l0,0c13.2548828,0,24,10.7451172,24,24v48
	c0,13.2548828-10.7451172,24-24,24l0,0C466.7451172,946,477,879,456,874L456,874z"/>
<path fill="#1A1A1A" d="M623,919.5c0,12.9785156-10.2978516,23.5-23,23.5l0,0c-12.703125,0-23-10.5214844-23-23.5v-47
	c0-12.9785156,10.296875-23.5,23-23.5l0,0c12.7021484,0,23,10.5214844,23,23.5V919.5z"/>
<path fill="#8C6239" d="M624,872c0-13.2548828-10.7451172-24-24-24l0,0c-13.2548828,0-24,10.7451172-24,24v48
	c0,13.2548828,10.7451172,24,24,24l0,0C613.2548828,944,603,877,624,872L624,872z"/>
<linearGradient id="raise_2_" gradientUnits="userSpaceOnUse" x1="539.5527344" y1="676" x2="539.5527344" y2="950.5634766">
	<stop  offset="0.190184" style="stop-color:#8C6239"/>
	<stop  offset="1" style="stop-color:#754C24"/>
</linearGradient>
<path id="raise_1_" fill="url(#raise_2_)" d="M504,676c0,0-21,189-20,238s109,48.8740234,111-1.1259766S577,676,577,676"/>
<linearGradient id="SVGID_5_" gradientUnits="userSpaceOnUse" x1="623.4726562" y1="539.6508789" x2="672.7281494" y2="598.3512573" gradientTransform="matrix(-1 0 0 1 1124.0996094 0)">
	<stop  offset="0.190184" style="stop-color:#8C6239"/>
	<stop  offset="1" style="stop-color:#754C24"/>
</linearGradient>
<path fill="url(#SVGID_5_)" d="M452.5,546c-12.9785156,0-23.5,10.296875-23.5,23l0,0c0,12.703125,10.5214844,23,23.5,23h47
	c12.9785156,0,23.5-10.296875,23.5-23l0,0c0-12.703125-10.5214844-23-23.5-23H452.5z"/>
<path fill="#8C6239" d="M524,569L524,569c0-13.2548828-10.7451172-24-24-24h-48c-27,0-24,24-24,24c0-19,74-44,72,24
	C500,593,524,591,524,569z"/>
<path id="eye_L_1_" fill="#1A1A1A" d="M488,681c0,13.2548828-10.7451172,24-24,24l0,0c-13.2548828,0-24-10.7451172-24-24v-96
	c0-13.2548828,10.7451172-24,24-24l0,0c13.2548828,0,24,10.7451172,24,24v39l-25,9l25,9V681z"/>
<linearGradient id="SVGID_6_" gradientUnits="userSpaceOnUse" x1="580.3730469" y1="539.6503906" x2="629.6279297" y2="598.3500366">
	<stop  offset="0.190184" style="stop-color:#8C6239"/>
	<stop  offset="1" style="stop-color:#603813"/>
</linearGradient>
<path fill="url(#SVGID_6_)" d="M628.5,546c12.9785156,0,23.5,10.296875,23.5,23l0,0c0,12.703125-10.5214844,23-23.5,23h-47
	c-12.9785156,0-23.5-10.296875-23.5-23l0,0c0-12.703125,10.5214844-23,23.5-23H628.5z"/>
<path fill="#8C6239" d="M557,569L557,569c0-13.2548828,10.7451172-24,24-24h48c27,0,24,24,24,24c0-19-74-44-72,24
	C581,593,557,591,557,569z"/>
<path id="eye_rR_1_" fill="#1A1A1A" d="M640,681c0,13.2548828-10.7451172,24-24,24l0,0c-13.2548828,0-24-10.7451172-24-24v-96
	c0-13.2548828,10.7451172-24,24-24l0,0c13.2548828,0,24,10.7451172,24,24v39l-25,9l25,9V681z"/>
</svg>
