<?xml version="1.0" encoding="utf-8"?>
<!-- Generator: Adobe Illustrator 15.0.2, SVG Export Plug-In  -->
<!DOCTYPE svg PUBLIC "-//W3C//DTD SVG 1.1//EN" "http://www.w3.org/Graphics/SVG/1.1/DTD/svg11.dtd" [
	<!ENTITY ns_flows "http://ns.adobe.com/Flows/1.0/">
]>
<svg version="1.1"
	 xmlns="http://www.w3.org/2000/svg" xmlns:xlink="http://www.w3.org/1999/xlink" xmlns:a="http://ns.adobe.com/AdobeSVGViewerExtensions/3.0/"
	 x="0px" y="0px" width="1080px" height="1080px" viewBox="0 0 1080 1080"
	 overflow="visible" enable-background="new 0 0 1080 1080" xml:space="preserve">
<defs>
</defs>
<rect fill="#FFFFFF" fill-opacity="0.0" width="1080" height="1080"/>
<g>
	<path fill="#8C6239" d="M540,945c0.55,0-6.127,1.019-14.839,2.263l-10.321,1.475c-8.712,1.244-22.849,3.907-31.417,5.917
		l-49.846,11.691C425.01,968.355,410.8,970,402,970h-12c-8.8,0-20.688-5.465-26.417-12.144L209.417,778.144
		c-5.729-6.679-10.992-19.32-11.693-28.093l-15.448-193.102c-0.702-8.772,2.234-22.236,6.524-29.919l51.4-92.06
		c4.29-7.684,9.657-20.926,11.927-29.429l42.745-160.083c2.27-8.502,10.761-18.257,18.869-21.678c0,0,49.258-20.781,81.258-31.781
		s129.006-13.575,129.006-13.575c8.797-0.234,23.191-0.234,31.988,0c0,0,97.006,2.575,129.006,13.575s81.258,31.781,81.258,31.781
		c8.108,3.42,16.6,13.175,18.87,21.678l42.744,160.083c2.271,8.502,7.638,21.745,11.928,29.429l51.4,92.06
		c4.29,7.684,7.226,21.147,6.523,29.919l-15.447,193.102c-0.702,8.772-5.964,21.414-11.694,28.093L716.418,957.856
		C710.688,964.535,698.8,970,690,970h-12c-8.8,0-23.01-1.645-31.577-3.654l-49.846-11.691c-8.567-2.01-22.705-4.673-31.416-5.917
		l-10.322-1.475C546.128,946.019,539.45,945,540,945z"/>
</g>
<g>
	<linearGradient id="SVGID_1_" gradientUnits="userSpaceOnUse" x1="539.8306" y1="805" x2="539.8306" y2="265.1475">
		<stop  offset="0" style="stop-color:#603813"/>
		<stop  offset="0.4673" style="stop-color:#6C431D"/>
		<stop  offset="1" style="stop-color:#754C24"/>
	</linearGradient>
	<path fill="url(#SVGID_1_)" d="M541,805c-100,0-96-12-96-12c-16-44-51.076-47.438-51.076-47.438
		c-8.758-0.859-22.123-5.225-29.699-9.701l-60.45-35.721c-7.576-4.477-15.598-15.105-17.826-23.618l-30.897-118.043
		c-2.228-8.513-0.444-21.709,3.965-29.325C259.017,529.153,306,448,301,399s20.418-95.008,38-103c22-10,185.12-30.048,185.12-30.048
		c8.734-1.073,23.027-1.073,31.761,0C555.881,265.952,719,286,741,296c17.582,7.992,43,54,38,103s41.983,130.153,41.983,130.153
		c4.409,7.616,5.902,20.729,3.318,29.142l-37.604,122.41c-2.584,8.412-10.872,18.999-18.418,23.527l-52.561,31.535
		c-7.546,4.528-20.886,8.935-29.644,9.794c0,0-35.076,3.438-51.076,47.438c0,0,4,12-96,12"/>
</g>
<g>
	<linearGradient id="SVGID_2_" gradientUnits="userSpaceOnUse" x1="540.0054" y1="900.3242" x2="540.0054" y2="378.0005">
		<stop  offset="0.1656" style="stop-color:#C69C6D"/>
		<stop  offset="1" style="stop-color:#754C24"/>
	</linearGradient>
	<path fill="url(#SVGID_2_)" d="M551.979,899.938c-6.611,0.516-17.411,0.516-24,0s-15.986-6.92-20.883-14.23l-53.191-79.414
		c-4.897-7.311-8.143-20.453-7.213-29.203c0,0,39.589-372.423,42.309-385.484c2-9.605,35.095-12.305,35.095-12.305
		C532.866,378.585,540.023,378,540,378s7.121,0.73,15.875,1.623c0,0,33.125,3.377,35.125,11.982
		c3.021,12.995,42.321,385.482,42.321,385.482c0.923,8.752-2.328,21.895-7.226,29.205l-53.191,79.414
		C568.007,893.018,558.591,899.422,551.979,899.938z"/>
</g>
<path fill="none" stroke="#000000" stroke-linecap="round" stroke-miterlimit="10" d="M545,833v32c0,0,29,5,29,17"/>
<path fill="none" stroke="#000000" stroke-linecap="round" stroke-miterlimit="10" d="M535,832v32c0,0-29,5-29,17"/>
<path d="M569,872.76c0,1-21,5.99-29,6.24l-0.042-51.177L546,827.76v36.25C546,864.01,569,868.76,569,872.76z"/>
<path d="M510.958,873c0,1,21.042,5.75,29.042,6v-50.937L533.958,828v36.25C533.958,864.25,510.958,869,510.958,873z"/>
<path fill="#333333" d="M540,833.529c0,0-64-10.529-76-36.529c-11.346-24.582-8-60,76-62l-0.042,0.197c84,2,87.346,37.418,76,62
	c-12,26-76,36.529-76,36.529L540,833.529z"/>
<path id="nose_dark_1_" fill="#1A1A1A" d="M539.958,826.917c0,0-2,0.331-7-4.669s-12-35-15-39s-36-4-40-5s-6-24.331,62-24.331l0,0
	C607.958,753.917,606,777,602,778s-37,1-40,5s-10,34-15,39s-7.042,4.896-7.042,4.896"/>
<path fill="#8C6239" d="M685,192c0,0,8.584-94.361,81-79c33,7,31.697,83.605,15,117c-12,24-53,17-68,11
	C707.586,238.834,680,226,685,192z"/>
<linearGradient id="SVGID_3_" gradientUnits="userSpaceOnUse" x1="764.4551" y1="150.3896" x2="716.1063" y2="234.1321">
	<stop  offset="0" style="stop-color:#754C24"/>
	<stop  offset="0.4853" style="stop-color:#6E451E"/>
	<stop  offset="1" style="stop-color:#603813"/>
</linearGradient>
<path fill="url(#SVGID_3_)" d="M690.053,205c0,0-1.209-19.583,8-38c3-6,5.947-9,8.947-9c2,0,2.947,3,3,7c0,0,3-13,9-13
	c0,0,5-1,5.053,14c0,0,2.947-19,10.947-19c7,0,2.521,20.828,4.053,17c4-10,7.947-21,14.947-19c0,0,5,4,2,14l-3,10c0,0,8-19,14-17
	c8.746,2.916-0.947,20-3.947,22c0,0,9.947-15,16.947-7c2.794,3.193-4,12-7,16c0,0,7-9,13-6c4,2,2,12-2,29c0,0-4,19-9,24
	c-5.522,5.522-13,9-20,10c-7.981,1.14-18,0-18,0S695,234,690.053,205z"/>
<path fill="#8C6239" d="M396.397,192c0,0-8.584-94.361-81-79c-33,7-31.697,83.605-15,117c12,24,53,17,68,11
	C373.811,238.834,401.397,226,396.397,192z"/>
<linearGradient id="SVGID_4_" gradientUnits="userSpaceOnUse" x1="1159.9521" y1="150.3892" x2="1111.6033" y2="234.1319" gradientTransform="matrix(-1 0 0 1 1476.8945 0)">
	<stop  offset="0" style="stop-color:#754C24"/>
	<stop  offset="0.4853" style="stop-color:#6E451E"/>
	<stop  offset="1" style="stop-color:#603813"/>
</linearGradient>
<path fill="url(#SVGID_4_)" d="M391.344,205c0,0,1.209-19.583-8-38c-3-6-5.947-9-8.947-9c-2,0-2.947,3-3,7c0,0-3-13-9-13
	c0,0-5-1-5.053,14c0,0-2.947-19-10.947-19c-7,0-2.521,20.828-4.053,17c-4-10-7.947-21-14.947-19c0,0-5,4-2,14l3,10c0,0-8-19-14-17
	c-8.746,2.916,0.947,20,3.947,22c0,0-9.947-15-16.947-7c-2.794,3.193,4,12,7,16c0,0-7-9-13-6c-4,2-2,12,2,29c0,0,4,19,9,24
	c5.522,5.522,13,9,20,10c7.981,1.14,18,0,18,0S386.397,234,391.344,205z"/>
<linearGradient id="SVGID_5_" gradientUnits="userSpaceOnUse" x1="565.3604" y1="571.9219" x2="618.2073" y2="569.1523">
	<stop  offset="0" style="stop-color:#8C6239"/>
	<stop  offset="0.2074" style="stop-color:#90663D"/>
	<stop  offset="0.4222" style="stop-color:#9D7348"/>
	<stop  offset="0.6396" style="stop-color:#B1875A"/>
	<stop  offset="0.8037" style="stop-color:#C69C6D"/>
</linearGradient>
<path fill="url(#SVGID_5_)" d="M576,391.605c0,7-3,323.395-3,323.395s-2,9,14,14c9.4,2.938,39,23,41,27c0,0-31-353.395-37-364.395
	S576,381.605,576,391.605z"/>
<linearGradient id="nose_shape_Left_2_" gradientUnits="userSpaceOnUse" x1="687.2803" y1="571.9219" x2="740.1272" y2="569.1523" gradientTransform="matrix(-1 0 0 1 1200.9199 0)">
	<stop  offset="0" style="stop-color:#8C6239"/>
	<stop  offset="0.2074" style="stop-color:#90663D"/>
	<stop  offset="0.4222" style="stop-color:#9D7348"/>
	<stop  offset="0.6396" style="stop-color:#B1875A"/>
	<stop  offset="0.8037" style="stop-color:#C69C6D"/>
</linearGradient>
<path id="nose_shape_Left_1_" fill="url(#nose_shape_Left_2_)" d="M503,391.605c0,7,3,323.395,3,323.395s2,9-14,14
	c-9.4,2.938-39,23-41,27c0,0,31-353.395,37-364.395S503,381.605,503,391.605z"/>
<path fill="none" stroke="#603813" stroke-width="6" stroke-linecap="round" stroke-miterlimit="10" d="M603,387c0,0,50,87,111-2"/>
<path fill="none" stroke="#603813" stroke-width="6" stroke-linecap="round" stroke-miterlimit="10" d="M614,386c0,0,38,67,88,0"/>
<linearGradient id="SVGID_6_" gradientUnits="userSpaceOnUse" x1="656.7305" y1="379" x2="656.7305" y2="333.5259">
	<stop  offset="0.1656" style="stop-color:#603813"/>
	<stop  offset="0.816" style="stop-color:#754C24"/>
</linearGradient>
<path fill="url(#SVGID_6_)" d="M578,379c0,0,31-4,44-24s58.886-36.147,87,0c14,18,39,24,19,24C715.958,379,578,379,578,379z"/>
<circle fill="#1A1A1A" cx="657" cy="378" r="31"/>
<path fill="none" stroke="#603813" stroke-width="6" stroke-linecap="round" stroke-miterlimit="10" d="M476,387c0,0-50,87-111-2"/>
<path fill="none" stroke="#603813" stroke-width="6" stroke-linecap="round" stroke-miterlimit="10" d="M465,386c0,0-38,67-88,0"/>
<linearGradient id="SVGID_7_" gradientUnits="userSpaceOnUse" x1="386.8071" y1="378.9995" x2="386.8071" y2="333.5254" gradientTransform="matrix(-1 0 0 1 808.5381 0)">
	<stop  offset="0.1656" style="stop-color:#603813"/>
	<stop  offset="0.816" style="stop-color:#754C24"/>
</linearGradient>
<path fill="url(#SVGID_7_)" d="M500.462,379c0,0-31-4-44-24s-58.886-36.147-87,0c-14,18-39,24-19,24
	C362.504,379,500.462,379,500.462,379z"/>
<circle fill="#1A1A1A" cx="422" cy="378" r="31"/>
</svg>
