<?xml version="1.0" encoding="UTF-8"?>
<!--SVG ANIMATION STYLE SHEET-->
<?xml-stylesheet href="../../css/object-app.css" type="text/css"?>
<!DOCTYPE svg PUBLIC "-//W3C//DTD SVG 1.1//EN" "http://www.w3.org/Graphics/SVG/1.1/DTD/svg11.dtd">
<svg id="graphic" version="1.1" xmlns="http://www.w3.org/2000/svg" xmlns:xlink="http://www.w3.org/1999/xlink" x="0px" y="0px" width="800px" height="800px" viewBox="0 0 1200 1200" style="enable-background:new 0 0 1200 1200;" xml:space="default">
	<style type="text/css">
	<![CDATA[
		.st0{fill:#4D4D4D;}
		.st1{fill:#808080;}
		.st2{fill:#1A1A1A;}
		.st3{fill:#808080;stroke:#000000;stroke-width:4.0053496;stroke-miterlimit:10;}
		.st4{fill:none;}
		.st5{fill:none;stroke:#000000;stroke-width:30.4761868;stroke-miterlimit:10;}
		.st6{fill:#E6E6E6;stroke:#000000;stroke-width:8;stroke-miterlimit:10;}
		.st7{fill:none;stroke:#000000;stroke-width:6.0080247;stroke-linecap:round;stroke-miterlimit:10;}
		.st8{fill:#E6E6E6;stroke:#000000;stroke-width:4.0053496;stroke-miterlimit:10;}
	]]>
	</style>
		<rect id="fullBack" fill="#000" fill-opacity="0.0" width="1200" height="1200"/>
		<g id="chainRing" transform="translate(200px 200px) rotate(45)">
			<g id="mounting" class="spin">
				<path d="M631,522.8574219c0,16.8300781-14.1679688,30.4765625-31,30.4765625l0,0c-16.8310547,0-31-13.6464844-31-30.4765625
					v-60.9526367c0-16.8310547,14.1689453-30.4765625,31-30.4765625l0,0c16.8320312,0,31,13.6455078,31,30.4765625V522.8574219z
					 M600,506.40625c-8.4155273,0-15.2382812,6.8208008-15.2382812,15.2382812
					c0,8.4155273,6.8227539,15.2382812,15.2382812,15.2382812c8.4150391,0,15.2382812-6.8227539,15.2382812-15.2382812
					C615.2382812,513.2270508,608.4150391,506.40625,600,506.40625z"/>
				<path d="M631,1017.5234375C631,1034.3554688,616.9365234,1048,600,1048l0,0c-16.9365234,0-31-13.6445312-31-30.4765625
					v-60.3798828c0-16.8320312,14.0634766-30.4765625,31-30.4765625l0,0c16.9365234,0,31,13.6445312,31,30.4765625V1017.5234375z
					 M600,940.6923828c-8.4155273,0-15.2382812,6.8203125-15.2382812,15.2373047
					c0,8.4150391,6.8227539,15.2382812,15.2382812,15.2382812c8.4150391,0,15.2382812-6.8232422,15.2382812-15.2382812
					C615.2382812,947.5126953,608.4150391,940.6923828,600,940.6923828z"/>
				<path d="M908,743.5234375C908,760.3554688,894.3554688,774,877.5234375,774h-60.046875
					C800.6445312,774,787,760.3554688,787,743.5234375v-0.046875C787,726.6445312,800.6445312,713,817.4765625,713h60.046875
					C894.3554688,713,908,726.6445312,908,743.4765625V743.5234375z M800.6914062,743.8095703
					c0,8.4160156,6.8212891,15.2382812,15.2382812,15.2382812c8.4150391,0,15.2382812-6.8222656,15.2382812-15.2382812
					c0-8.4150391-6.8232422-15.2373047-15.2382812-15.2373047
					C807.5126953,728.5722656,800.6914062,735.3945312,800.6914062,743.8095703z"/>
				<path d="M413,743.5234375C413,760.3554688,399.5043945,774,382.8569336,774h-60.7138672
					C305.4956055,774,292,760.3554688,292,743.5234375v-0.046875C292,726.6445312,305.4956055,713,322.1430664,713h60.7138672
					C399.5043945,713,413,726.6445312,413,743.4765625V743.5234375z M384.0703125,728.5722656
					c-8.4155273,0-15.2382812,6.8222656-15.2382812,15.2373047c0,8.4160156,6.8227539,15.2382812,15.2382812,15.2382812
					c8.4165039,0,15.2368164-6.8222656,15.2368164-15.2382812
					C399.3071289,735.3945312,392.4868164,728.5722656,384.0703125,728.5722656z"/>
			</g>
			<circle id="innerRing" class="st5" cx="600" cy="740" r="304.7617188"/>
			<g id="teethOutline" class="spin">
				<path d="M1000,740c0,220.9140625-179.0869141,400-400,400c-220.9140625,0-400-179.0859375-400-400
					c0-220.9135742,179.0859375-400,400-400C820.9130859,340,1000,519.0864258,1000,740z M651.4287109,362.4897461
					C634.609375,360.2192383,617.4404297,359.0473633,600,359.0473633c-17.4399414,0-34.609375,1.171875-51.4282227,3.4414062
					C362.5,387.5991211,219.046875,547.046875,219.046875,740c0,210.3945312,170.5585938,380.953125,380.953125,380.953125
					S980.9521484,950.3945312,980.9521484,740C980.9521484,547.046875,837.5,387.6000977,651.4287109,362.4897461z"/>
				<path d="M765.4296875,386.6757812c-8.7783203,27.0131836-37.7919922,41.7954102-64.8046875,33.0195312
					c-27.0126953-8.777832-41.796875-37.7924805-33.0195312-64.8046875"/>
				<path d="M866.2460938,454.1889648c-16.6962891,22.9804688-48.8583984,28.0727539-71.8369141,11.3769531
					c-22.9765625-16.6928711-28.0722656-48.8544922-11.3779297-71.8339844"/>
				<path d="M940.5576172,549.3496094c-22.9794922,16.6953125-55.140625,11.6035156-71.8378906-11.3769531
					c-16.6933594-22.9780273-11.5996094-55.1411133,11.3808594-71.8359375"/>
				<path d="M983.2041016,662.8691406c-27.0136719,8.7792969-56.0253906-6.0039062-64.8046875-33.0175781
					c-8.7753906-27.0136719,6.0058594-56.0253906,33.0214844-64.8027344"/>
				<path d="M989.5234375,781.9052734c-28.4033203,0-51.4287109-23.0253906-51.4287109-51.4287109
					c0-28.4042969,23.0253906-51.4277344,51.4287109-51.4277344"/>
				<path d="M957.1328125,901.6181641c-27.0146484-8.7753906-41.7939453-37.7900391-33.0185547-64.8027344
					c8.7763672-27.0117188,37.7910156-41.796875,64.8046875-33.0185547"/>
				<path d="M887.71875,1004.3398438c-22.9794922-16.6943359-28.0732422-48.8554688-11.3779297-71.8359375
					c16.6943359-22.9775391,48.8554688-28.0732422,71.8359375-11.3759766"/>
				<path d="M790.6484375,1082.4609375c-16.6943359-22.9775391-11.6015625-55.1396484,11.3789062-71.8359375
					c22.9775391-16.6943359,55.1376953-11.5986328,71.8349609,11.3789062"/>
				<path d="M673.3203125,1125.109375c-8.7783203-27.0117188,6.0068359-56.0263672,33.0185547-64.8017578
					c27.0126953-8.7792969,56.0273438,6.0058594,64.8046875,33.0175781"/>
				<path d="M548.5717773,1129.5234375c0-28.4033203,23.0244141-51.4287109,51.4282227-51.4287109
					c28.4033203,0,51.4287109,23.0253906,51.4287109,51.4287109"/>
				<path d="M430.7602539,1093.3242188c8.7788086-27.0146484,37.7919922-41.7958984,64.8046875-33.0195312
					c27.0131836,8.7783203,41.796875,37.7900391,33.0195312,64.8037109"/>
				<path d="M328.0390625,1022.0039062c16.6967773-22.9804688,48.8579102-28.0732422,71.8383789-11.3789062
					c22.9780273,16.6962891,28.0732422,48.8583984,11.3764648,71.8388672"/>
				<path d="M253.7290039,923.0361328c22.9804688-16.6962891,55.1420898-11.6035156,71.8359375,11.3769531
					c16.6967773,22.9775391,11.6044922,55.140625-11.3759766,71.8359375"/>
				<path d="M212.9829102,805.6992188c27.0170898-8.7763672,56.0288086,6.0087891,64.8076172,33.0205078
					c8.7758789,27.0136719-6.0092773,56.0273438-33.0209961,64.8037109"/>
				<path d="M210.4765625,684.7617188c28.4038086,0,51.4282227,23.0253906,51.4282227,51.4277344
					c0,28.4052734-23.0244141,51.4306641-51.4282227,51.4306641"/>
				<path d="M246.6743164,568.8574219c27.0146484,8.7773438,41.7944336,37.7910156,33.0185547,64.8027344
					c-8.7773438,27.0136719-37.7905273,41.796875-64.8022461,33.0195312"/>
				<path d="M316.0913086,469.9438477c22.9790039,16.6967773,28.0712891,48.8583984,11.3789062,71.8374023
					c-16.6967773,22.9765625-48.8583984,28.0742188-71.8374023,11.3769531"/>
				<path d="M416.9702148,393.7299805c16.6938477,22.9785156,11.6015625,55.1396484-11.3789062,71.8344727
					c-22.9780273,16.6958008-55.1396484,11.6030273-71.8334961-11.3764648"/>
				<path d="M530.4897461,354.890625c8.7773438,27.012207-6.0068359,56.0253906-33.0195312,64.8027344
					c-27.0131836,8.7768555-56.0273438-6.0058594-64.8037109-33.0180664"/>
				<path d="M651.4287109,351.2382812c0,28.402832-23.0253906,51.8100586-51.4287109,51.8100586
					c-28.4038086,0-51.4282227-24.3818359-51.4282227-51.0483398H600"/>
			</g>
		</g>
		<g id="triangle">
			<polygon class="st0" points="164.8544922,63.0009766 1035.1455078,63.1826172 600.0004883,933.2919922 	"/>
			<path class="st2" d="M169.7094727,66.0019531l860.5825195,0.1796875L600.0004883,926.5849609L169.7094727,66.0019531 M160,60
				l440,880l440-879.8164062L160,60L160,60z"/>
		</g>
		<g id="ratSkull">
			<path id="TOOTH-R" class="st3" d="M642.0839844,722.0585938c0,0,4.8095703,3.203125,4.8095703,9.6074219
				s-8.015625,29.6191406-11.2216797,40.0253906c-3.2070312,10.4082031-11.2236328,28.8203125-13.6289062,31.2216797
				c-2.4042969,2.4013672-20.0507812,3.1367188-20.8408203-1.6005859c-0.8017578-4.8027344-0.8017578-29.6210938-0.8017578-32.8222656
				c0,0,4.8105469-12.8085938,4.8105469-15.2099609s5.3710938-12.4296875,8.015625-14.4101562
				C616.4326172,736.46875,642.0839844,722.0585938,642.0839844,722.0585938z"/>
			<path id="TOOTH-L" class="st3" d="M557.9160156,722.0585938c0,0-4.8100586,3.203125-4.8100586,9.6074219
				s8.0161133,29.6191406,11.222168,40.0253906c3.2070312,10.4082031,11.2226562,28.8203125,13.6274414,31.2216797
				c2.4052734,2.4013672,20.8530273,3.1367188,21.6435547-1.6005859c0.8012695-4.8027344,0-28.8203125,0-32.8222656
				c0,0-4.8100586-12.8085938-4.8100586-15.2099609s-5.3710938-12.4296875-8.015625-14.4101562
				C583.5668945,736.46875,557.9160156,722.0585938,557.9160156,722.0585938z"/>
			<path id="SINUS-right" class="st1" d="M659.71875,490.7041016c0,0,37.6757812-1.6005859,37.6757812,36.8251953
				c0,29.6191406-13.6269531,44.8291016-33.6679688,56.8378906C643.6875,596.375,646.8935547,573.9599609,646.8935547,560.3505859
				c0-12.0078125,5.6103516-19.2138672-7.2138672-33.6220703C631.3613281,517.3818359,631.6630859,490.7041016,659.71875,490.7041016z
				 M697.3945312,527.5292969c0-38.4257812-37.6757812-36.8251953-37.6757812-36.8251953
				c-7.4472656,0-12.9394531,1.8798828-16.8330078,4.8154297c0,0-5.609375,34.3222656,26.453125,35.2119141
				C698.1953125,531.53125,697.3945312,527.5292969,697.3945312,527.5292969z"/>
			<path id="SINUS-left" class="st1" d="M560.3203125,526.7285156c-12.8256836,14.4082031-7.2143555,21.6142578-7.2143555,33.6220703
				c0,13.609375,3.206543,36.0244141-16.8334961,24.0166016c-20.0400391-12.0087891-33.6674805-27.21875-33.6674805-56.8378906
				c0-38.4257812,37.675293-36.8251953,37.675293-36.8251953
				C568.3364258,490.7041016,568.6391602,517.3818359,560.3203125,526.7285156z M530.6611328,530.7314453
				c32.0615234-0.8896484,26.4526367-35.2119141,26.4526367-35.2119141
				c-3.8935547-2.9355469-9.3857422-4.8154297-16.8334961-4.8154297c0,0-37.675293-1.6005859-37.675293,36.8251953
				C502.6049805,527.5292969,501.8032227,531.53125,530.6611328,530.7314453z"/>
			<path id="SINUS_BONE-right" class="st8" d="M647.6953125,498.7089844
				c-0.8017578,3.203125-2.4042969,17.6123047,8.8164062,24.8164062c11.2246094,7.2060547,13.6289062-2.4013672,13.6289062-4.8027344
				s-1.1308594-16.2568359-7.2148438-20.8144531C656.5117188,493.1054688,648.4960938,495.5068359,647.6953125,498.7089844z"/>
			<path id="SINUS_BONE-left" class="st8" d="M552.3046875,498.7089844c0.8012695,3.203125,2.4042969,17.6123047-8.8178711,24.8164062
				c-11.2226562,7.2060547-13.6274414-2.4013672-13.6274414-4.8027344s1.1308594-16.2568359,7.2148438-20.8144531
				C543.4868164,493.1054688,551.5029297,495.5068359,552.3046875,498.7089844z"/>
			<path id="skullBase" class="st6" d="M600.4003906,766c-4.0078125,0-4.0078125-5.5595703-4.0078125-5.5595703
				c0-21.6152344-9.6191406-26.3955078-22.4448242-33.6005859c-21.9277344-12.3183594-40.0805664-15.9990234-40.0805664-44.8193359
				c0-28.8193359-16.0317383-88.0517578-26.4526367-96.0576172c-10.4204102-8.0058594-24.0478516-15.2080078-24.0478516-48.0302734
				c0-32.8212891-56.1123047-66.4423828-66.5332031-72.8476562C406.4125977,458.6806641,400,440.2695312,400,428.2607422
				c0-12.0078125,24.0478516-93.6621094,24.0478516-93.6621094c9.6191406-25.6171875,15.2304688-11.2070312,15.2304688-63.2412109
				c0-123.2832031,161.1220703-116.078125,161.1220703-116.078125s160.3203125-7.2050781,160.3203125,116.078125
				c0,52.0341797,5.6113281,37.625,15.2304688,63.2421875c0,0,24.0488281,81.6542969,24.0488281,93.6621094
				c0,12.0087891-6.4121094,30.4208984-16.8339844,36.8251953c-10.4208984,6.4042969-66.5332031,40.0273438-66.5332031,72.8486328
				c0,32.8222656-13.6269531,40.0273438-24.0478516,48.0322266s-26.4521484,67.2451172-26.4521484,96.0634766
				c0,28.8203125-18.1533203,32.5136719-40.0820312,44.8310547c-12.8242188,7.2041016-22.4433594,11.9628906-22.4433594,33.578125
				c0,0,0,5.5595703-4.0083008,5.5595703H600.4003906z M659.71875,441.8710938
				c0,44.0292969,86.5732422,29.6201172,102.6054688,20.0136719c24.0976562-14.4394531,16.0332031-48.0322266,12.8261719-58.4394531
				c-4.859375-15.7734375-10.7539062-41.1054688-16.0332031-63.2421875
				c-4.0078125-16.8115234-11.2636719-21.1855469-28.8564453-21.6142578
				c-32.8662109-0.8007812-30.4609375,50.4335938-45.6923828,52.8349609
				c-15.2294922,2.4023438-27.2539062,26.4179688-26.4521484,45.6308594L659.71875,441.8710938z M639.6796875,526.7285156
				c12.8242188,14.4082031,7.2138672,21.6142578,7.2138672,33.6220703c0,13.609375-3.2060547,36.0244141,16.8330078,24.0166016
				c20.0410156-12.0087891,33.6679688-27.21875,33.6679688-56.8378906c0-38.4257812-37.6757812-36.8251953-37.6757812-36.8251953
				C631.6630859,490.7041016,631.3613281,517.3818359,639.6796875,526.7285156z M541.8833008,417.0546875
				c0.8022461-19.2128906-11.222168-43.2285156-26.4526367-45.6308594
				c-15.2304688-2.4013672-12.8256836-53.6357422-45.6914062-52.8349609
				c-17.5927734,0.4287109-24.8496094,4.8027344-28.8579102,21.6142578
				c-5.277832,22.1367188-11.1723633,47.46875-16.0317383,63.2421875c-3.206543,10.4072266-11.2714844,44,12.8256836,58.4394531
				c16.0317383,9.6064453,102.6049805,24.015625,102.6049805-20.0136719L541.8833008,417.0546875z M540.2802734,490.7041016
				c0,0-37.675293-1.6005859-37.675293,36.8251953c0,29.6191406,13.6274414,44.8291016,33.6674805,56.8378906
				C556.3125,596.375,553.105957,573.9599609,553.105957,560.3505859c0-12.0078125-5.6113281-19.2138672,7.2143555-33.6220703
				C568.6391602,517.3818359,568.3364258,490.7041016,540.2802734,490.7041016z"/>
			<path id="NASIL_RIDGE_1_" d="M600.4003906,713c0,0-15.2304688,1.7285156-22.4448242-13.4824219
				c-2.0004883-4.21875-6.4125977-5.5400391-17.6352539-8.7431641c-11.2226562-3.2021484,21.6435547-1.9931641,26.453125,5.2109375
				C591.5830078,703.1904297,593.987793,706,600.4003906,706h-0.8012695c6.4125977,0,8.8178711-2.7783203,13.6274414-9.9833984
				c4.8085938-7.2050781,37.6748047-8.5927734,26.453125-5.3916016c-11.2226562,3.203125-15.6347656,4.5683594-17.6367188,8.7871094
				C614.8300781,714.6220703,599.5991211,713,599.5991211,713H600.4003906z"/>
			<path id="EYE_OUTLINE-right" class="st7" d="M628.4570312,473.8925781c18.4365234,0,13.6269531-87.2578125,13.6269531-87.2578125
				c-3.2060547-62.4423828,16.8046875-90.5751953,27.2548828-107.2724609
				c12.0234375-19.2128906,22.9257812-22.8964844,8.8173828,0.8007812
				c-17.6347656,29.6201172-22.4453125,71.2470703-22.4453125,104.0693359c0,20.0136719,4.0078125,57.6386719,4.0078125,57.6386719
				c0,44.0292969,86.5732422,29.6201172,102.6054688,20.0136719c24.0976562-14.4394531,16.0332031-48.0322266,12.8261719-58.4394531
				c-4.859375-15.7734375-10.7539062-41.1054688-16.0332031-63.2421875
				c-4.0078125-16.8115234-11.2636719-21.1855469-28.8564453-21.6142578
				c-32.8662109-0.8007812-30.4609375,50.4335938-45.6923828,52.8349609
				c-15.2294922,2.4023438-27.2539062,26.4179688-26.4521484,45.6308594"/>
			<path id="EYE_OUTLINE-left" class="st7" d="M571.5429688,473.8925781c-18.4370117,0-13.6269531-87.2578125-13.6269531-87.2578125
				c3.2060547-62.4423828-16.8051758-90.5751953-27.2548828-107.2724609
				c-12.0244141-19.2128906-22.9262695-22.8964844-8.8173828,0.8007812
				c17.6347656,29.6201172,22.4448242,71.2470703,22.4448242,104.0693359c0,20.0136719-4.0083008,57.6386719-4.0083008,57.6386719
				c0,44.0292969-86.5732422,29.6201172-102.6049805,20.0136719c-24.097168-14.4394531-16.0322266-48.0322266-12.8256836-58.4394531
				c4.859375-15.7734375,10.7539062-41.1054688,16.0317383-63.2421875
				c4.0083008-16.8115234,11.2651367-21.1855469,28.8579102-21.6142578
				c32.8657227-0.8007812,30.4609375,50.4335938,45.6914062,52.8349609
				c15.2304688,2.4023438,27.2548828,26.4179688,26.4526367,45.6308594"/>
			<path id="SINUS_RIDGE-right" d="M610.8222656,501.1113281c0,0,6.4121094,9.6054688,6.4121094,15.2099609
				c0,5.6035156,9.6191406,53.6357422,8.015625,67.2451172s16.8339844,14.4091797,10.421875,14.4091797
				c-6.4140625,0-14.4296875-2.4013672-14.4296875-14.4091797s-7.2148438-66.1132812-7.2148438-67.2451172
				C614.0273438,514.7207031,613.2265625,506.7148438,610.8222656,501.1113281z"/>
			<path id="SINUS_RIDGE-left" d="M589.1782227,501.1113281c0,0-6.4125977,9.6054688-6.4125977,15.2099609
				c0,5.6035156-9.6191406,53.6357422-8.0161133,67.2451172s-16.8334961,14.4091797-10.4213867,14.4091797
				c6.4130859,0,14.4291992-2.4013672,14.4291992-14.4091797s7.2143555-66.1132812,7.2143555-67.2451172
				C585.9716797,514.7207031,586.7734375,506.7148438,589.1782227,501.1113281z"/>
		</g>
</svg>