<?xml version="1.0" encoding="utf-8"?>
<!-- Generator: Adobe Illustrator 15.0.2, SVG Export Plug-In . SVG Version: 6.00 Build 0)  -->
<!DOCTYPE svg PUBLIC "-//W3C//DTD SVG 1.1//EN" "http://www.w3.org/Graphics/SVG/1.1/DTD/svg11.dtd">
<svg version="1.1" xmlns="http://www.w3.org/2000/svg" xmlns:xlink="http://www.w3.org/1999/xlink" x="0px" y="0px" width="1200px"
	 height="1200px" viewBox="0 0 1200 1200" style="enable-background:new 0 0 1200 1200;" xml:space="preserve">
<style type="text/css">
<![CDATA[
	.st0{fill:#585858;stroke:#231F20;stroke-width:2;stroke-miterlimit:10;}
	.st1{fill:#838383;}
	.st2{fill:#899EB1;}
	.st3{fill:none;stroke:#000000;stroke-width:4;stroke-linejoin:round;stroke-miterlimit:10;}
	.st4{fill:#585858;}
	.st5{fill:none;stroke:#231F20;stroke-width:2;stroke-miterlimit:10;}
	.st6{fill:#BFBFBF;}
	.st7{fill:#F3D592;}
	.st8{fill:#535353;stroke:#535353;stroke-width:2;stroke-miterlimit:10;}
	.st9{display:none;}
]]>
</style>
<g id="backCOLOR">
	<rect id="background-fill" fill="none" width="1200" height="1200"/>
</g>
<g id="COLOR">
	<path id="mask-fill" class="st2" d="M810,809c0,0,5-23,8-1s4,116,4,116s2,12-8,12s-12,0-12-17S810,809,810,809z M400,919
		c0,17-2,17-12,17s-8-12-8-12s1-94,4-116s8,1,8,1S400,902,400,919z M638.6,644.7c-12-9.1-24.6-16,1.7-24.6c30.1-9.8,50.9-9.8,70.3-4
		c5.7,1.7,31.4,11-2.6,28c-9.7,4.8-14.8,7.4-22,10c-6.3,2.3-18,7-28,2C652.3,653.3,645.8,650.2,638.6,644.7z M544,656.1
		c-10,5-21.7,0.3-28-2c-7.2-2.6-12.3-5.2-22-10c-34-17-8.3-26.3-2.6-28c19.3-5.8,40.2-5.8,70.3,4c26.3,8.6,13.7,15.4,1.7,24.6
		C556.2,650.2,549.7,653.3,544,656.1z M616,1065c3,0,22-4,41-24c21-22.1,42-130,45-151c3-20.7,22.5-146.5,60-184c20-20,24-24,24-24
		h0.5c0,0-0.5,276,0,295.5S804,995,804,995h6c36,0,30-20,30-20V599V270c0-52-17-84-59-113c-15.1-10.4-62-32-181-32
		s-165.9,21.6-181,32c-42,29-59,61-59,113v329v376c0,0-6,20,30,20h6c0,0,17,2,17.5-17.5s0-295.5,0-295.5h0.5c0,0,4,4,24,24
		c37.5,37.5,57,163.3,60,184c3,21,24,128.9,45,151c19,20,38,24,41,24c15,0,16,0,16,0S601,1065,616,1065z"/>
</g>
<g id="MIDTONES">
	<g id="mid-ears">
		<path id="shadow-ear-right" class="st1" d="M786,934c-0.5-19.5,0.5-273,0.5-273s-1.5-31,10.5-31s7,81,7,109s-8,47-8,81
			C796,820,798,934,786,934z"/>
		<path id="shadow-ear-left" class="st1" d="M414,934c0.5-19.5-0.5-273-0.5-273s1.5-31-10.5-31s-7,81-7,109s8,47,8,81
			C404,820,402,934,414,934z"/>
	</g>
	<g id="mid-lips">
		<path class="st1" d="M600,918c87,0,83-68,83-68h-83h-83C517,850,514,918,600,918z"/>
		<path class="st1" d="M600,845h84c-14-71-84-59-84-59s-70-12-84,59H600z"/>
	</g>
	<g id="mid-nose-face">
		<g id="mid-face-right">
			<path class="st1" d="M772,642c0,0,7,22-19,41s-31,35-34,46s-23,38-23,38s8-73.6,31-86C753,667,772,642,772,642z"/>
			<path class="st1" d="M615.9,1064c0,0,15.7,2.1,39-78c23-79,26.2-88,4-70c-16,13-30.1,101.8-31,122
				C626.9,1060,615.9,1064,615.9,1064z"/>
		</g>
		<g id="mid-face-left">
			<path class="st1" d="M428,642c0,0-7,22,19,41s31,35,34,46s23,38,23,38s-8-73.6-31-86C447,667,428,642,428,642z"/>
			<path class="st1" d="M584.1,1064c0,0-15.7,2.1-39-78c-23-79-26.2-88-4-70c16,13,30.1,101.8,31,122
				C573.1,1060,584.1,1064,584.1,1064z"/>
		</g>
		<g id="mid-nose-right">
			<path id="shadow-noseSide-left_1_" class="st1" d="M672.3,773.1c0,0-9.1-14.3-19-16c-6-1-3-8.6,2-9c12-1,15.7,5.2,17,7
				C678.3,763.1,672.3,773.1,672.3,773.1z"/>
			<path class="st1" d="M621,728c0,0,7,13,23,15s16,2,16,2s-11-5-19-8S621,728,621,728z"/>
			<path class="st1" d="M613,741l7,33c0,0,3.5-32.4,0-47c-9-37,0-102,0-102s8-16,40-23c0,0-55,2-52,46L613,741z"/>
			<path class="st1" d="M600,763c0,0,7,2,10,4s8,8,1,8s-11,0-11,0"/>
		</g>
		<g id="mid-nose-left">
			<path id="shadow-noseSide-left" class="st1" d="M527.7,773.1c0,0,9.1-14.3,19-16c6-1,3-8.6-2-9c-12-1-15.7,5.2-17,7
				C521.7,763.1,527.7,773.1,527.7,773.1z"/>
			<path class="st1" d="M579,728c0,0-7,13-23,15s-16,2-16,2s11-5,19-8S579,728,579,728z"/>
			<path class="st1" d="M587,741l-7,33c0,0-3.5-32.4,0-47c9-37,0-102,0-102s-8-16-40-23c0,0,55,2,52,46L587,741z"/>
			<path class="st1" d="M600,763c0,0-7,2-10,4s-8,8-1,8s11,0,11,0"/>
		</g>
	</g>
	<path id="mid-brow" class="st1" d="M678,485c-57,2.7-75,76-75,76s0,5-3,6c-3-1-3-6-3-6s-18-73.3-75-76c-83-4-91.7,137.6-87,111
		c4.3-24.4,23.8-82.8,57.1-98.9c0.1,1.8,0.4,4.3,0.9,6.7c1,5,8.8,16.9,7,8c-0.9-4.5-3.4-9.9-0.2-17.5c2-0.5,4.1-0.9,6.2-1.1
		c0.2,1,1.2,6.1,2,9.8c1,5,9.8,17.9,8,9c-0.9-4.7-3.7-10.4,0.3-18.6c23.1,3.1,44.3,22.8,58.4,41.5l-4.7,6.3c0,0-9,14,3,2
		c2-2,3.6-3.2,4.9-3.9c1.4,1.9,2.6,3.8,3.8,5.7l-4.7,6.2c0,0-9,14,3,2c1.8-1.8,3.3-2.9,4.4-3.7c4.4,7.5,7.1,13.9,7.6,17.5
		c2,15,8,15,8,15s6,0,8-15c0.5-3.6,3.2-10,7.5-17.5c1.2,0.8,2.7,1.9,4.5,3.7c12,12,3-2,3-2l-4.7-6.2c1.2-1.9,2.5-3.8,3.8-5.7
		c1.2,0.7,2.9,2,4.9,3.9c12,12,3-2,3-2l-4.7-6.3c14.1-18.7,35.3-38.4,58.4-41.5c3.9,8.2,1.2,13.8,0.3,18.6c-1.8,8.9,7-4,8-9
		c0.7-3.7,1.8-8.8,2-9.8c2.1,0.2,4.2,0.6,6.2,1.1c3.2,7.6,0.7,13-0.2,17.5c-1.8,8.9,6-3,7-8c0.5-2.3,0.7-4.9,0.9-6.7
		c33.3,16.1,52.8,74.5,57.1,98.9C769.7,622.6,761,481,678,485z"/>
	<g id="mid-forehead">
		<path class="st1" d="M599,373c-35,0-46.9,26.7-37,21c21-12,38-10,38-10s17-2,38,10C647.9,399.7,634,373,599,373z"/>
		<path class="st1" d="M568,368c12.6-4.6,20-6,32-7c12,1,19.4,2.4,32,7c22,8-8-17-32-17S546,376,568,368z"/>
		<path class="st1" d="M581,339c9-2.1,19-2,19-2s10-0.1,19,2c17,4,24,3,4-6c0,0-14-5-23-5s-23,5-23,5C557,342,564,343,581,339z"/>
	</g>
</g>
<g id="SHADOWS">
	<g id="shadow-eyes">
		<path id="shadow-eye-right" class="st8" d="M638.6,644.7c-12-9.1-24.6-16,1.7-24.6c30.1-9.8,50.9-9.8,70.3-4
			c5.7,1.7,31.4,11-2.6,28c-9.7,4.8-14.8,7.4-22,10c-6.3,2.3-18,7-28,2C652.3,653.3,645.8,650.2,638.6,644.7z M645,650
			c1.9,1.1,47,39.1,104-26.9c8.5-9.9-88-41.1-132-2.1C617,621,624,638,645,650z"/>
		<path id="shadow-eye-left" class="st8" d="M542,656.1c-10,5-21.7,0.3-28-2c-7.2-2.6-12.3-5.2-22-10c-34-17-8.3-26.3-2.6-28
			c19.3-5.8,40.2-5.8,70.3,4c26.3,8.6,13.7,15.4,1.7,24.6C554.2,650.2,547.7,653.3,542,656.1z M583,621c-44-39-140.5-7.8-132,2.1
			c57,66,102.1,28,104,26.9C576,638,583,621,583,621z"/>
	</g>
	<g id="shadow-nostrils">
		<g id="shadow-nostril-right">
			<path class="st4" d="M627,773h34.5c0,0-4.4-11-18.3-11C629.2,762,627,773,627,773z"/>
		</g>
		<g id="shadow-nostril-left">
			<path class="st4" d="M573,773h-34.5c0,0,4.4-11,18.3-11C570.8,762,573,773,573,773z"/>
		</g>
	</g>
	<g id="shadow-ear-marks">
		<g id="shadow-earMarks-right">
			<polygon class="st4" points="840,953 826.3,946 823,947 840,959 			"/>
			<path class="st4" d="M827.7,944l12,4l0.3-3l-10.7-4C829.3,941,827.3,940,827.7,944z"/>
			<polygon class="st4" points="786,947 802,942 801,939 786,943 			"/>
			<polygon class="st4" points="806,947 786,960 786,954 803,945 			"/>
		</g>
		<g id="shadow-earMarks-left">
			<polygon class="st4" points="360,953 373.7,946 377,947 360,959 			"/>
			<path class="st4" d="M372.3,944l-12,4l-0.3-3l10.7-4C370.7,941,372.7,940,372.3,944z"/>
			<polygon class="st4" points="414,947 398,942 399,939 414,943 			"/>
			<polygon class="st4" points="394,947 414,960 414,954 397,945 			"/>
		</g>
	</g>
	<g id="shadow-brow">
		<path id="shadow-brow-right" class="st4" d="M613,618c0,0,12-97,77-100c55.8-2.6,64,93,64,93s-18.9-76.8-64-75
			C639,538,613,618,613,618z"/>
		<path id="shadow-brow-left" class="st4" d="M587,618c0,0-12-97-77-100c-55.8-2.6-64,93-64,93s18.9-76.8,64-75
			C561,538,587,618,587,618z"/>
	</g>
	<path id="shadow-lip" class="st4" d="M600,846h84c-1-2-20-16-40-16s-34,8-34,8l-10-51l-10,51c0,0-14-8-34-8s-39,14-40,16H600z"/>
	<g id="shadow-ears">
		<g id="decor-piercing-right">
			<path class="st0" d="M810,809c0,0,5-23,8-1s4,116,4,116s2,12-8,12s-12,0-12-17S810,809,810,809z M825,769c0,0-5-17-10-1
				s-14,163-14,163s-2,17,8,17c13,0,20,2,20-17S825,769,825,769z"/>
			<path class="st5" d="M812,936c0,0,8-1,11,3s4,8-2,9"/>
		</g>
		<g id="decor-piercing-left">
			<path class="st0" d="M398,919c0,17-2,17-12,17s-8-12-8-12s1-94,4-116s8,1,8,1S398,902,398,919z M371,931c0,19,7,17,20,17
				c10,0,8-17,8-17s-9-147-14-163s-10,1-10,1S371,912,371,931z"/>
			<path class="st5" d="M388,936c0,0-8-1-11,3s-4,8,2,9"/>
		</g>
	</g>
</g>
<g id="DECORATIONS">
	<g id="high-lips">
		<path class="st6" d="M664,874.1c-9,8-30,23.9-39,14.9c-13-13-17-15.9-25-15.9s-12,2.9-25,15.9c-9,9-30-6.9-39-14.9
			c-5.8-5.2-16-21-16-21s8,53,80,53s80-53,80-53S669.8,868.9,664,874.1z"/>
		<path class="st6" d="M557,829.9c19.2,1.1,43,11,43,11s23.8-9.9,43-11c18-1,41,15,41,15s-17-22-42-26c-34.6-5.5-42,18-42,18
			s-7.4-23.5-42-18c-25,4-42,26-42,26S539,828.9,557,829.9z"/>
	</g>
	<g id="high-head">
		<g id="decor-texture-right">
			<path class="st6" d="M754,143c0,0-41,242.3,27,323.3c30.2,36,59,64,59,28V255C840,255,840,177,754,143z"/>
		</g>
		<g id="decor-texture-left">
			<path class="st6" d="M446,143c0,0,41,242.3-27,323.3c-30.2,36-59,64-59,28V255C360,255,360,177,446,143z"/>
		</g>
	</g>
</g>
<g id="OUTLINE">
	<path id="mask-outline" class="st3" d="M600,1065c0,0-1,0-16,0c-3,0-22-4-41-24c-21-22.1-42-130-45-151c-3-20.7-22.5-146.5-60-184
		c-20-20-24-24-24-24h-0.5c0,0,0.5,276,0,295.5S396,995,396,995h-6c-36,0-30-20-30-20V599V270c0-52,17-84,59-113
		c15.1-10.4,62-32,181-32s165.9,21.6,181,32c42,29,59,61,59,113v329v376c0,0,6,20-30,20h-6c0,0-17,2-17.5-17.5s0-295.5,0-295.5H786
		c0,0-4,4-24,24c-37.5,37.5-57,163.3-60,184c-3,21-24,128.9-45,151c-19,20-38,24-41,24C601,1065,600,1065,600,1065z"/>
</g>
<g id="GUIDES" class="st9">
</g>
</svg>
