<?xml version="1.0" encoding="utf-8"?>
<!-- Generator: Adobe Illustrator 15.0.2, SVG Export Plug-In . SVG Version: 6.00 Build 0)  -->
<?xml-stylesheet href="../../css/object-app.css" type="text/css"?>
<!DOCTYPE svg PUBLIC "-//W3C//DTD SVG 1.1//EN" "http://www.w3.org/Graphics/SVG/1.1/DTD/svg11.dtd">
<svg version="1.1" id="Layer_1" xmlns="http://www.w3.org/2000/svg" xmlns:xlink="http://www.w3.org/1999/xlink" x="0px" y="0px"
	 width="1200px" height="1200px" viewBox="0 0 1200 1200" enable-background="new 0 0 1200 1200" xml:space="preserve">
<rect id="fullBack" fill="none" width="1200" height="1200"/>
<g id="chainRing">
	<g id="mounting">
		<path d="M468.377,564.537c11.9,11.901,11.531,31.569-0.37,43.471l0,0c-11.901,11.901-31.569,12.271-43.471,0.37l-43.1-43.1
			c-11.901-11.901-11.531-31.569,0.37-43.471l0,0c11.902-11.902,31.569-12.271,43.471-0.37L468.377,564.537z M434.824,574.825
			c-5.951,5.951-5.953,15.598,0,21.55c5.95,5.951,15.6,5.951,21.55,0c5.95-5.95,5.95-15.599,0-21.55
			C450.422,568.873,440.774,568.875,434.824,574.825z"/>
		<path d="M818.158,914.318c11.902,11.902,11.606,31.495-0.369,43.471l0,0c-11.977,11.977-31.568,12.273-43.471,0.371
			l-42.695-42.695c-11.902-11.902-11.605-31.494,0.37-43.471l0,0c11.976-11.977,31.569-12.271,43.471-0.37L818.158,914.318z
			 M741.91,881.912c-5.95,5.95-5.952,15.598,0,21.549c5.949,5.951,15.6,5.951,21.55,0c5.95-5.95,5.95-15.6,0-21.55
			C757.508,875.959,747.861,875.961,741.91,881.912z"/>
		<path d="M820.279,524.704c11.902,11.902,11.902,31.198,0.001,43.1l-42.46,42.46c-11.902,11.902-31.198,11.901-43.1,0l-0.033-0.033
			c-11.902-11.902-11.902-31.199,0-43.101l42.459-42.459c11.902-11.902,31.198-11.901,43.1,0L820.279,524.704z M744.604,600.784
			c5.951,5.951,15.599,5.952,21.551,0c5.95-5.951,5.951-15.6,0-21.551c-5.951-5.95-15.6-5.95-21.551,0.001
			C738.652,585.187,738.653,594.834,744.604,600.784z"/>
		<path d="M470.262,874.721c11.902,11.902,12.008,31.094,0.236,42.865l-42.932,42.932c-11.771,11.771-30.963,11.666-42.864-0.236
			l-0.033-0.033c-11.901-11.902-12.007-31.094-0.235-42.865l42.931-42.931c11.771-11.771,30.963-11.666,42.864,0.235
			L470.262,874.721z M439.233,884.605c-5.95,5.951-5.95,15.6-0.001,21.549c5.951,5.951,15.6,5.951,21.551,0.001
			c5.951-5.952,5.95-15.599-0.001-21.55C454.832,878.655,445.186,878.654,439.233,884.605z"/>
	</g>
	
		<circle id="innerRing" fill="none" stroke="#000000" stroke-width="30.4762" stroke-miterlimit="10" cx="599.999" cy="740.001" r="304.762"/>
	<g id="teethOutline">
		<path d="M882.842,457.158c156.211,156.209,156.209,409.477,0,565.686s-409.475,156.209-565.686,0
			c-156.209-156.21-156.209-409.476,0.001-565.686C473.366,300.949,726.633,300.948,882.842,457.158z M369.426,436.695
			c-13.499,10.288-26.469,21.6-38.801,33.932s-23.644,25.301-33.932,38.799c-113.816,149.329-102.506,363.512,33.932,499.95
			c148.771,148.771,389.979,148.771,538.75,0s148.77-389.977-0.002-538.748C732.936,334.189,518.754,322.878,369.426,436.695z"/>
		<path d="M467.139,373.186c12.894,25.309,2.83,56.277-22.477,69.173c-25.307,12.894-56.277,2.831-69.172-22.476"/>
		<path d="M586.165,349.638c4.444,28.055-14.697,54.398-42.751,58.841c-28.051,4.443-54.396-14.695-58.84-42.749"/>
		<path d="M706,364.38c-4.443,28.055-30.785,47.195-58.842,42.752c-28.052-4.444-47.192-30.789-42.748-58.843"/>
		<path d="M816.426,414.495c-12.893,25.31-43.861,35.371-69.17,22.478c-25.307-12.896-35.369-43.863-22.473-69.173"/>
		<path d="M905.066,494.198c-20.084,20.084-52.648,20.084-72.732,0c-20.084-20.085-20.082-52.646,0.002-72.73"/>
		<path d="M966.812,601.752c-25.309,12.896-56.275,2.83-69.171-22.476c-12.894-25.306-2.832-56.277,22.477-69.172"/>
		<path d="M990.363,723.469c-28.053,4.445-54.396-14.695-58.84-42.75c-4.443-28.052,14.695-54.396,42.752-58.84"/>
		<path d="M976.965,847.349c-28.053-4.442-47.193-30.786-42.75-58.843c4.443-28.052,30.787-47.189,58.842-42.748"/>
		<path d="M924.158,960.469c-25.307-12.893-35.369-43.863-22.475-69.17c12.895-25.309,43.865-35.369,69.172-22.477"/>
		<path d="M839.069,1051.801c-20.085-20.084-20.085-52.646-0.001-72.73s52.647-20.085,72.732,0"/>
		<path d="M730.168,1109.51c-12.896-25.311-2.832-56.277,22.475-69.173c25.309-12.894,56.276-2.833,69.172,22.476"/>
		<path d="M607.102,1131.713c-4.443-28.057,14.696-54.398,42.75-58.844c28.055-4.441,54.4,14.697,58.843,42.754"/>
		<path d="M484.575,1114.277c4.443-28.056,30.786-47.196,58.841-42.75c28.054,4.44,47.195,30.783,42.751,58.839"/>
		<path d="M372.793,1060.119c12.898-25.309,43.868-35.369,69.176-22.477c25.307,12.896,35.367,43.867,22.474,69.173"/>
		<path d="M285.506,976.376c20.084-20.085,52.646-20.084,72.73-0.001c20.085,20.086,20.086,52.648,0.002,72.732"/>
		<path d="M229.145,868.824c25.309-12.896,56.275-2.831,69.17,22.475c12.896,25.308,2.833,56.276-22.474,69.17"/>
		<path d="M208.287,749.796c28.055-4.442,54.398,14.698,58.844,42.751c4.439,28.053-14.697,54.399-42.752,58.842"/>
		<path d="M225.729,624.572c28.053,4.443,47.193,30.787,42.748,58.841c-4.442,28.054-30.785,47.194-58.838,42.75"/>
		<path d="M278.535,516.839c25.307,12.894,35.368,43.863,22.475,69.17c-12.896,25.307-43.864,35.371-69.171,22.476"/>
		<path d="M361.469,428.739c20.084,20.084,20.354,52.917,0.27,73.001c-20.084,20.084-53.605,19.125-72.461,0.269l36.365-36.365"/>
	</g>
</g>
<g id="triangle">
	<polygon fill="#4D4D4D" points="164.854,63.001 1035.146,63.183 600,933.292 	"/>
	<path fill="#1A1A1A" d="M169.709,66.002l860.583,0.18L600,926.585L169.709,66.002 M160,60l440,880l440-879.816L160,60L160,60z"/>
</g>
<g id="ratSkull">
	<path id="TOOTH-R" fill="#808080" stroke="#000000" stroke-width="4.0054" stroke-miterlimit="10" d="M642.084,722.059
		c0,0,4.81,3.203,4.81,9.607s-8.016,29.619-11.222,40.025c-3.207,10.408-11.224,28.82-13.629,31.222
		c-2.404,2.401-20.051,3.137-20.841-1.601c-0.802-4.803-0.802-29.621-0.802-32.822c0,0,4.811-12.809,4.811-15.21
		s5.371-12.43,8.016-14.41C616.433,736.469,642.084,722.059,642.084,722.059z"/>
	<path id="TOOTH-L" fill="#808080" stroke="#000000" stroke-width="4.0054" stroke-miterlimit="10" d="M557.916,722.059
		c0,0-4.81,3.203-4.81,9.607s8.016,29.619,11.222,40.025c3.207,10.408,11.223,28.82,13.627,31.222
		c2.405,2.401,20.853,3.137,21.644-1.601c0.801-4.803,0-28.82,0-32.822c0,0-4.81-12.809-4.81-15.21s-5.371-12.43-8.016-14.41
		C583.567,736.469,557.916,722.059,557.916,722.059z"/>
	<path id="SINUS-right" fill="#808080" d="M659.719,490.704c0,0,37.676-1.601,37.676,36.825c0,29.619-13.627,44.829-33.668,56.838
		c-20.039,12.008-16.833-10.407-16.833-24.017c0-12.008,5.61-19.214-7.214-33.622C631.361,517.382,631.663,490.704,659.719,490.704z
		 M697.395,527.529c0-38.426-37.676-36.825-37.676-36.825c-7.447,0-12.939,1.88-16.833,4.815c0,0-5.609,34.322,26.453,35.212
		C698.195,531.531,697.395,527.529,697.395,527.529z"/>
	<path id="SINUS-left" fill="#808080" d="M560.32,526.729c-12.826,14.408-7.214,21.614-7.214,33.622
		c0,13.609,3.207,36.024-16.833,24.017c-20.04-12.009-33.667-27.219-33.667-56.838c0-38.426,37.675-36.825,37.675-36.825
		C568.336,490.704,568.639,517.382,560.32,526.729z M530.661,530.731c32.062-0.89,26.453-35.212,26.453-35.212
		c-3.894-2.936-9.386-4.815-16.833-4.815c0,0-37.675-1.601-37.675,36.825C502.605,527.529,501.803,531.531,530.661,530.731z"/>
	<path id="SINUS_BONE-right" fill="#E6E6E6" stroke="#000000" stroke-width="4.0054" stroke-miterlimit="10" d="M647.695,498.709
		c-0.802,3.203-2.404,17.612,8.816,24.816c11.225,7.206,13.629-2.401,13.629-4.803s-1.131-16.257-7.215-20.814
		C656.512,493.105,648.496,495.507,647.695,498.709z"/>
	<path id="SINUS_BONE-left" fill="#E6E6E6" stroke="#000000" stroke-width="4.0054" stroke-miterlimit="10" d="M552.305,498.709
		c0.801,3.203,2.404,17.612-8.818,24.816c-11.223,7.206-13.627-2.401-13.627-4.803s1.131-16.257,7.215-20.814
		C543.487,493.105,551.503,495.507,552.305,498.709z"/>
	<path id="skullBase" fill="#E6E6E6" stroke="#000000" stroke-width="8" stroke-miterlimit="10" d="M600.4,766
		c-4.008,0-4.008-5.56-4.008-5.56c0-21.615-9.619-26.396-22.445-33.601c-21.928-12.318-40.081-15.999-40.081-44.819
		c0-28.819-16.032-88.052-26.453-96.058c-10.42-8.006-24.048-15.208-24.048-48.03c0-32.821-56.112-66.442-66.533-72.848
		C406.413,458.681,400,440.27,400,428.261c0-12.008,24.048-93.662,24.048-93.662c9.619-25.617,15.23-11.207,15.23-63.241
		c0-123.283,161.122-116.078,161.122-116.078s160.32-7.205,160.32,116.078c0,52.034,5.611,37.625,15.23,63.242
		c0,0,24.049,81.654,24.049,93.662c0,12.009-6.412,30.421-16.834,36.825c-10.421,6.404-66.533,40.027-66.533,72.849
		c0,32.822-13.627,40.027-24.048,48.032s-26.452,67.245-26.452,96.063c0,28.82-18.153,32.514-40.082,44.831
		c-12.824,7.204-22.443,11.963-22.443,33.578c0,0,0,5.56-4.008,5.56H600.4z M659.719,441.871c0,44.029,86.573,29.62,102.605,20.014
		c24.098-14.439,16.033-48.032,12.826-58.439c-4.859-15.773-10.754-41.105-16.033-63.242c-4.008-16.812-11.264-21.186-28.856-21.614
		c-32.866-0.801-30.461,50.434-45.692,52.835c-15.229,2.402-27.254,26.418-26.452,45.631L659.719,441.871z M639.68,526.729
		c12.824,14.408,7.214,21.614,7.214,33.622c0,13.609-3.206,36.024,16.833,24.017c20.041-12.009,33.668-27.219,33.668-56.838
		c0-38.426-37.676-36.825-37.676-36.825C631.663,490.704,631.361,517.382,639.68,526.729z M541.883,417.055
		c0.802-19.213-11.222-43.229-26.453-45.631c-15.23-2.401-12.826-53.636-45.691-52.835c-17.593,0.429-24.85,4.803-28.858,21.614
		c-5.278,22.137-11.172,47.469-16.032,63.242c-3.207,10.407-11.271,44,12.826,58.439c16.032,9.606,102.605,24.016,102.605-20.014
		L541.883,417.055z M540.28,490.704c0,0-37.675-1.601-37.675,36.825c0,29.619,13.627,44.829,33.667,56.838
		c20.04,12.008,16.833-10.407,16.833-24.017c0-12.008-5.611-19.214,7.214-33.622C568.639,517.382,568.336,490.704,540.28,490.704z"
		/>
	<path id="NASIL_RIDGE_1_" d="M600.4,713c0,0-15.23,1.729-22.445-13.482c-2-4.219-6.413-5.54-17.635-8.743
		c-11.223-3.202,21.644-1.993,26.453,5.211C591.583,703.19,593.988,706,600.4,706h-0.801c6.413,0,8.818-2.778,13.627-9.983
		c4.809-7.205,37.675-8.593,26.453-5.392c-11.223,3.203-15.635,4.568-17.637,8.787C614.83,714.622,599.599,713,599.599,713H600.4z"
		/>
	
		<path id="EYE_OUTLINE-right" fill="none" stroke="#000000" stroke-width="6.008" stroke-linecap="round" stroke-miterlimit="10" d="
		M628.457,473.893c18.437,0,13.627-87.258,13.627-87.258c-3.206-62.442,16.805-90.575,27.255-107.272
		c12.023-19.213,22.926-22.896,8.817,0.801c-17.635,29.62-22.445,71.247-22.445,104.069c0,20.014,4.008,57.639,4.008,57.639
		c0,44.029,86.573,29.62,102.605,20.014c24.098-14.439,16.033-48.032,12.826-58.439c-4.859-15.773-10.754-41.105-16.033-63.242
		c-4.008-16.812-11.264-21.186-28.856-21.614c-32.866-0.801-30.461,50.434-45.692,52.835c-15.229,2.402-27.254,26.418-26.452,45.631
		"/>
	<path id="EYE_OUTLINE-left" fill="none" stroke="#000000" stroke-width="6.008" stroke-linecap="round" stroke-miterlimit="10" d="
		M571.543,473.893c-18.437,0-13.627-87.258-13.627-87.258c3.206-62.442-16.805-90.575-27.255-107.272
		c-12.024-19.213-22.926-22.896-8.817,0.801c17.635,29.62,22.445,71.247,22.445,104.069c0,20.014-4.008,57.639-4.008,57.639
		c0,44.029-86.573,29.62-102.605,20.014c-24.097-14.439-16.032-48.032-12.826-58.439c4.859-15.773,10.754-41.105,16.032-63.242
		c4.008-16.812,11.265-21.186,28.858-21.614c32.866-0.801,30.461,50.434,45.691,52.835c15.23,2.402,27.255,26.418,26.453,45.631"/>
	<path id="SINUS_RIDGE-right" d="M610.822,501.111c0,0,6.412,9.605,6.412,15.21c0,5.604,9.619,53.636,8.016,67.245
		s16.834,14.409,10.422,14.409c-6.414,0-14.43-2.401-14.43-14.409s-7.215-66.113-7.215-67.245
		C614.027,514.721,613.227,506.715,610.822,501.111z"/>
	<path id="SINUS_RIDGE-left" d="M589.178,501.111c0,0-6.413,9.605-6.413,15.21c0,5.604-9.619,53.636-8.016,67.245
		s-16.833,14.409-10.421,14.409c6.413,0,14.429-2.401,14.429-14.409s7.214-66.113,7.214-67.245
		C585.972,514.721,586.773,506.715,589.178,501.111z"/>
</g>
</svg>
